
<svg width="192" height="192" viewBox="0 0 192 192" xmlns="http://www.w3.org/2000/svg">
  <defs>
    <!-- Gradiente do Instituto Coração Valente -->
    <linearGradient id="bgGrad" x1="0%" y1="0%" x2="100%" y2="100%">
      <stop offset="0%" style="stop-color:#2563eb;stop-opacity:1" />
      <stop offset="50%" style="stop-color:#3b82f6;stop-opacity:1" />
      <stop offset="100%" style="stop-color:#7c3aed;stop-opacity:1" />
    </linearGradient>
    
    <!-- Sombra suave -->
    <filter id="shadow" x="-20%" y="-20%" width="140%" height="140%">
      <feDropShadow dx="0" dy="3.84" stdDeviation="1.92" flood-color="rgba(0,0,0,0.2)"/>
    </filter>
  </defs>
  
  <!-- Fundo com gradiente -->
  <rect width="192" height="192" rx="34.56" fill="url(#bgGrad)" filter="url(#shadow)"/>
  
  <!-- Container para o logo -->
  <g transform="translate(28.799999999999997, 28.799999999999997)">
    <!-- Círculo de fundo para o logo -->
    <circle cx="67.19999999999999" cy="67.19999999999999" r="53.760000000000005" fill="rgba(255,255,255,0.15)" />
    
    <!-- Coração estilizado (representando o logo) -->
    <g transform="translate(19.200000000000003, 19.200000000000003)">
      <path d="M48 23.04 
               C34.56 9.600000000000001 15.36 9.600000000000001 15.36 28.799999999999997
               C15.36 9.600000000000001 -3.84 9.600000000000001 -3.84 28.799999999999997
               C-3.84 53.760000000000005 15.36 86.4 48 105.60000000000001
               C80.64 86.4 99.84 53.760000000000005 99.84 28.799999999999997
               C99.84 9.600000000000001 80.64 9.600000000000001 80.64 28.799999999999997
               C80.64 9.600000000000001 61.44 9.600000000000001 48 23.04 Z" 
            fill="white" 
            opacity="0.95"
            filter="url(#shadow)"/>
      
      <!-- Detalhes do coração -->
      <circle cx="28.799999999999997" cy="34.56" r="5.76" fill="rgba(37,99,235,0.3)"/>
      <circle cx="67.19999999999999" cy="34.56" r="5.76" fill="rgba(37,99,235,0.3)"/>
    </g>
    
    <!-- Texto "CV" estilizado -->
    <text x="67.19999999999999" y="111.35999999999999" 
          font-family="Arial, sans-serif" 
          font-size="15.36" 
          font-weight="bold" 
          fill="white" 
          text-anchor="middle"
          opacity="0.9">CV</text>
  </g>
  
  <!-- Brilho sutil no topo -->
  <ellipse cx="96" cy="48" rx="57.599999999999994" ry="19.200000000000003" 
           fill="rgba(255,255,255,0.2)" opacity="0.6"/>
</svg>